<?xml version="1.0" encoding="UTF-8"?>
<svg width="24px" height="24px" viewBox="0 0 24 24" version="1.1" xmlns="http://www.w3.org/2000/svg" xmlns:xlink="http://www.w3.org/1999/xlink">
    <title>external</title>
    <g id="external" stroke="none" stroke-width="1" fill="none" fill-rule="evenodd">
        <g fill="#7AA116" fill-rule="nonzero" id="Icon-Architecture-BG/64/AWS-Cost-Management">
            <g>
                <rect id="Rectangle" x="0" y="0" width="24" height="24"></rect>
            </g>
        </g>
        <g id="globe-americas" transform="translate(4.944, 4.944)" stroke="#FFFFFF" stroke-linecap="round" stroke-linejoin="round" stroke-width="1.2">
            <path d="M2.44221488,1.71729712 L2.6921776,3.21704208 C2.85335232,4.18412176 3.3126744,5.0766744 4.00594208,5.7699264 L5.292,7.056 L4.98829408,7.6633648 C4.81851888,8.0029936 4.88507264,8.413104 5.15351424,8.6815456 L6.209672,9.737672 C6.375096,9.903096 6.468,10.1273984 6.468,10.361344 L6.468,11.2148848 C6.468,11.5489472 6.6567872,11.8543936 6.9555696,12.0037456 L7.0753648,12.0637216 C7.4149936,12.2334576 7.825104,12.166896 8.0935456,11.8984544 L8.6601424,11.3318576 C9.534224,10.457776 10.154368,9.3624496 10.4541696,8.1631648 C10.5335888,7.8457232 10.4242208,7.5108768 10.1728704,7.301392 L9.1306992,6.4329552 C8.9334448,6.2685504 8.6743328,6.198304 8.4210224,6.2404832 L7.5037424,6.3933632 C7.2227568,6.4402464 6.93644,6.34844 6.7350304,6.1470304 L6.503672,5.915672 C6.1592608,5.5712608 6.1592608,5.01277056 6.503672,4.668328 L6.6064544,4.56551424 C6.874896,4.2970648 7.2850064,4.23051888 7.6246352,4.40030192 L8.0980928,4.63703856 C8.186136,4.68107584 8.2832736,4.704 8.381744,4.704 C8.8532416,4.704 9.159864,4.2078064 8.9490464,3.78607712 L8.82,3.528 L9.8044688,2.87170576 C10.3153232,2.53113616 10.7284128,2.06315088 11.0029696,1.51399808 L11.1173552,1.28530528 M2.44221488,1.71729712 C0.94641344,3.01113232 0,4.92304176 0,7.056 C0,10.9529504 3.15908096,14.112 7.056,14.112 C10.9529504,14.112 14.112,10.9529504 14.112,7.056 C14.112,4.67107984 12.9287872,2.56251184 11.1173552,1.28530528 M2.44221488,1.71729712 C3.67924928,0.64728608 5.29203136,0 7.056,0 C8.5680224,0 9.968952,0.4755744 11.1173552,1.28530528" id="Shape"></path>
        </g>
    </g>
</svg>