<?xml version="1.0" encoding="UTF-8"?>
<svg width="24px" height="24px" viewBox="0 0 24 24" version="1.1" xmlns="http://www.w3.org/2000/svg" xmlns:xlink="http://www.w3.org/1999/xlink">
    <title>shopify</title>
    <g id="shopify" stroke="none" stroke-width="1" fill="none" fill-rule="evenodd">
        <rect fill="#122A23" x="0" y="0" width="24" height="24"></rect>
        <g id="Group" transform="translate(4.2297, 3.193)" fill-rule="nonzero">
            <path d="M13.613712,3.39613641 C13.603296,3.30239241 13.519968,3.26072841 13.457472,3.25031241 C13.394976,3.23989641 12.145056,3.22948041 12.145056,3.22948041 C12.145056,3.22948041 11.09304,2.20871241 10.98888,2.10455241 C10.88472,2.00039241 10.686816,2.03164041 10.603488,2.05247241 C10.603488,2.05247241 10.405584,2.11496841 10.072272,2.21912841 C10.020192,2.04205641 9.936864,1.82332041 9.822288,1.60458441 C9.447312,0.885880415 8.90568,0.510904415 8.239056,0.510904415 C8.197392,0.510904415 8.145312,0.510904415 8.103648,0.521320415 C8.082816,0.500488415 8.061984,0.479656415 8.041152,0.448408415 C7.749504,0.135928415 7.384944,-0.00989558514 6.947472,0.000520414864 C6.09336,0.0213524149 5.249664,0.635896415 4.551792,1.73999241 C4.06224,2.51077641 3.69768,3.47946441 3.59352,4.22941641 C2.614416,4.53148041 1.92696,4.73980041 1.916544,4.75021641 C1.426992,4.90645641 1.40616,4.91687241 1.343664,5.38559241 C1.291584,5.72932041 0,15.7390964 0,15.7390964 L10.843056,17.6139764 L15.540672,16.4473844 C15.540672,16.4473844 13.624128,3.47946441 13.613712,3.39613641 Z M9.53064,2.38578441 C9.280656,2.45869641 8.999424,2.55244041 8.686944,2.64618441 C8.676528,2.21912841 8.624448,1.61500041 8.426544,1.09420041 C9.082752,1.21919241 9.395232,1.94831241 9.53064,2.38578441 Z M8.12448,2.82325641 C7.5516,3.00032841 6.937056,3.18781641 6.312096,3.38572041 C6.489168,2.71909641 6.82248,2.05247241 7.228704,1.61500041 C7.384944,1.44834441 7.593264,1.27127241 7.843248,1.16711241 C8.082816,1.65666441 8.12448,2.35453641 8.12448,2.82325641 L8.12448,2.82325641 Z M6.957888,0.573400415 C7.155792,0.573400415 7.322448,0.615064415 7.468272,0.708808415 C7.23912,0.823384415 7.009968,1.00045641 6.801648,1.22960841 C6.260016,1.81290441 5.843376,2.70868041 5.67672,3.58362441 C5.15592,3.73986441 4.655952,3.89610441 4.187232,4.04192841 C4.499712,2.66701641 5.645472,0.615064415 6.957888,0.573400415 L6.957888,0.573400415 Z" id="Shape" fill="#95BF47"></path>
            <path d="M13.457472,3.25031241 C13.394976,3.23989641 12.145056,3.22948041 12.145056,3.22948041 C12.145056,3.22948041 11.09304,2.20871241 10.98888,2.10455241 C10.947216,2.06288841 10.895136,2.04205641 10.843056,2.04205641 L10.843056,17.6139764 L15.540672,16.4473844 C15.540672,16.4473844 13.624128,3.48988041 13.613712,3.39613641 C13.59288,3.30239241 13.519968,3.26072841 13.457472,3.25031241 Z" id="Path" fill="#5E8E3E"></path>
            <path d="M8.239056,5.66682441 L7.697424,7.70836041 C7.697424,7.70836041 7.093296,7.42712841 6.364176,7.47920841 C5.301744,7.54170441 5.291328,8.20832841 5.301744,8.38540041 C5.36424,9.30200841 7.75992,9.49991241 7.895328,11.6351924 C7.999488,13.3225844 6.999552,14.4683444 5.562144,14.5620884 C3.833088,14.6662484 2.885232,13.6558964 2.885232,13.6558964 L3.249792,12.1039124 C3.249792,12.1039124 4.208064,12.8226164 4.968432,12.7809524 C5.4684,12.7497044 5.645472,12.3434804 5.62464,12.0518324 C5.551728,10.8644084 3.59352,10.9269044 3.468528,8.97911241 C3.364368,7.33338441 4.447632,5.66682441 6.832896,5.51058441 C7.770336,5.42725641 8.239056,5.66682441 8.239056,5.66682441 L8.239056,5.66682441 Z" id="Path" fill="#FFFFFF"></path>
        </g>
    </g>
</svg>