<?xml version="1.0" encoding="UTF-8"?>
<svg width="24px" height="24px" viewBox="0 0 24 24" version="1.1" xmlns="http://www.w3.org/2000/svg" xmlns:xlink="http://www.w3.org/1999/xlink">
    <title>slack</title>
    <g id="slack" stroke="none" stroke-width="1" fill="none" fill-rule="evenodd">
        <rect fill="#441949" x="0" y="0" width="24" height="24"></rect>
        <g id="slack-copy" transform="translate(3.8484, 3.8484)" fill-rule="nonzero">
            <g id="Group" transform="translate(0, 8.5922)" fill="#E01E5A">
                <path d="M3.436875,1.7184375 C3.436875,2.66750431 2.66750431,3.43687497 1.7184375,3.43687497 C0.769370685,3.43687497 0,2.66750431 0,1.7184375 C0,0.7490625 0.7490625,0 1.7184375,0 L3.436875,0 L3.436875,1.7184375 Z M4.2740625,1.7184375 C4.2740625,0.769370675 5.04343318,0 5.9925,0 C6.94156682,0 7.7109375,0.769370675 7.7109375,1.7184375 L7.7109375,5.9925 C7.7109375,6.94156682 6.94156682,7.7109375 5.9925,7.7109375 C5.04343318,7.7109375 4.2740625,6.94156682 4.2740625,5.9925 L4.2740625,1.7184375 Z" id="a"></path>
            </g>
            <g id="a-link" transform="translate(3.8555, 3.8555) rotate(90) translate(-3.8555, -3.8555)" fill="#36C5F0">
                <path d="M3.436875,1.7184375 C3.436875,2.66750431 2.66750431,3.43687497 1.7184375,3.43687497 C0.769370685,3.43687497 0,2.66750431 0,1.7184375 C0,0.7490625 0.7490625,0 1.7184375,0 L3.436875,0 L3.436875,1.7184375 Z M4.2740625,1.7184375 C4.2740625,0.769370675 5.04343318,0 5.9925,0 C6.94156682,0 7.7109375,0.769370675 7.7109375,1.7184375 L7.7109375,5.9925 C7.7109375,6.94156682 6.94156682,7.7109375 5.9925,7.7109375 C5.04343318,7.7109375 4.2740625,6.94156682 4.2740625,5.9925 L4.2740625,1.7184375 Z" id="a"></path>
            </g>
            <g id="a-link" transform="translate(12.4477, 3.8555) rotate(180) translate(-12.4477, -3.8555)translate(8.5922, 0)" fill="#2EB67D">
                <path d="M3.436875,1.7184375 C3.436875,2.66750431 2.66750431,3.43687497 1.7184375,3.43687497 C0.769370685,3.43687497 0,2.66750431 0,1.7184375 C0,0.7490625 0.7490625,0 1.7184375,0 L3.436875,0 L3.436875,1.7184375 Z M4.2740625,1.7184375 C4.2740625,0.769370675 5.04343318,0 5.9925,0 C6.94156682,0 7.7109375,0.769370675 7.7109375,1.7184375 L7.7109375,5.9925 C7.7109375,6.94156682 6.94156682,7.7109375 5.9925,7.7109375 C5.04343318,7.7109375 4.2740625,6.94156682 4.2740625,5.9925 L4.2740625,1.7184375 Z" id="a"></path>
            </g>
            <g id="a-link" transform="translate(12.4477, 12.4477) rotate(-90) translate(-12.4477, -12.4477)translate(8.5922, 8.5922)" fill="#ECB22E">
                <path d="M3.436875,1.7184375 C3.436875,2.66750431 2.66750431,3.43687497 1.7184375,3.43687497 C0.769370685,3.43687497 0,2.66750431 0,1.7184375 C0,0.7490625 0.7490625,0 1.7184375,0 L3.436875,0 L3.436875,1.7184375 Z M4.2740625,1.7184375 C4.2740625,0.769370675 5.04343318,0 5.9925,0 C6.94156682,0 7.7109375,0.769370675 7.7109375,1.7184375 L7.7109375,5.9925 C7.7109375,6.94156682 6.94156682,7.7109375 5.9925,7.7109375 C5.04343318,7.7109375 4.2740625,6.94156682 4.2740625,5.9925 L4.2740625,1.7184375 Z" id="a"></path>
            </g>
        </g>
    </g>
</svg>