<?xml version="1.0" encoding="UTF-8"?>
<svg width="24px" height="24px" viewBox="0 0 24 24" version="1.1" xmlns="http://www.w3.org/2000/svg" xmlns:xlink="http://www.w3.org/1999/xlink">
    <title>shopify copy 2</title>
    <g id="shopify-copy-2" stroke="none" stroke-width="1" fill="none" fill-rule="evenodd">
        <rect fill="#FAE8DA" x="0" y="0" width="24" height="24"></rect>
        <g id="Group" transform="translate(4.9422, 4.944)" fill="#DE483A" fill-rule="nonzero">
            <path d="M11.8576599,-4.4408921e-16 C13.1046746,-8.8817842e-16 14.1155799,1.01090522 14.1155799,2.25792 L14.1155799,11.85408 C14.1155799,13.1010948 13.1046746,14.112 11.8576599,14.112 L2.26149985,14.112 C1.01448507,14.112 0.00357985198,13.1010948 0.00357985198,11.85408 L0.00210371913,9.99586881 C0.607236259,10.3483073 2.02266782,11.1724582 2.36998585,11.368539 C2.58078385,11.487609 2.78320285,11.484963 2.98650385,11.367657 L5.79787885,9.749628 L8.69745385,8.080884 C8.81961085,8.010324 8.82578485,7.793793 8.68907485,7.715295 C8.52395053,7.6220651 8.35930834,7.52798385 8.19515485,7.433055 C8.05766112,7.35818564 7.89112974,7.36019003 7.75547785,7.438347 C7.72240285,7.45755184 6.63708854,8.0817091 5.50828857,8.73067677 L5.05684046,8.99021191 C4.00920855,9.59246404 3.04086066,10.1489464 2.97195085,10.187982 C2.78937685,10.292058 2.56358485,10.293381 2.38145185,10.187982 L0.003,8.806 L0.003,7.618 L0.127303676,7.69091103 C0.783459932,8.07301852 2.04482185,8.8070934 2.36998585,8.990667 C2.58122485,9.109737 2.78320285,9.107091 2.98650385,8.989785 L5.79390985,7.373961 L5.80449385,7.367787 L8.69745385,5.703012 C8.81961085,5.632452 8.82534385,5.415921 8.68863385,5.337864 L8.59293685,5.28318 C8.50932325,5.235552 8.41062745,5.17935096 8.32837919,5.1322945 L8.19515485,5.055624 C8.05766112,4.98075464 7.89112974,4.98275903 7.75547785,5.060916 C7.72240285,5.07990745 6.63708854,5.70395457 5.50828857,6.3528654 L5.05684046,6.61238053 C4.00920855,7.21459204 3.04086066,7.77107439 2.97195085,7.81011 C2.78900936,7.91469122 2.56439334,7.91469122 2.38145185,7.81011 C2.24714414,7.73265647 0.260782108,6.57830187 -2.14348391e-14,6.42674834 L0.003,5.24 L0.127226844,5.31304452 C0.783075772,5.6952014 2.04482185,6.429633 2.36998585,6.612795 C2.58122485,6.731865 2.78320285,6.729219 2.98650385,6.611913 L5.79743785,4.994325 L8.69745385,3.32514 C8.81961085,3.25458 8.82534385,3.03849 8.68863385,2.959992 L8.59293685,2.905308 C8.45313985,2.825928 8.27232985,2.722734 8.19515485,2.677752 C8.05766112,2.60288264 7.89112974,2.60488703 7.75547785,2.683044 C7.68712285,2.722734 3.12453685,5.345802 2.97195085,5.432679 C2.78900936,5.53726022 2.56439334,5.53726022 2.38145185,5.432679 L0.003,4.05 L0.00357985198,2.25792 C0.00357985198,1.01090522 1.01448507,4.4408921e-16 2.26149985,4.4408921e-16 L11.8576599,-4.4408921e-16 Z" id="Rectangle-2"></path>
        </g>
    </g>
</svg>