<?xml version="1.0" encoding="UTF-8"?>
<svg width="94px" height="94px" viewBox="0 0 94 94" version="1.1" xmlns="http://www.w3.org/2000/svg" xmlns:xlink="http://www.w3.org/1999/xlink">
    <title>cloudfront</title>
    <g id="cloudfront" stroke="none" stroke-width="1" fill="none" fill-rule="evenodd">
        <g id="Arch_Amazon-Simple-Email-Service_64" transform="translate(19, 19)" fill="#FFFFFF" fill-rule="nonzero">
            <path d="M45,48.999875 C45,47.373846 43.626,45.9998214 42,45.9998214 C40.374,45.9998214 39,47.373846 39,48.999875 C39,50.625904 40.374,51.9999286 42,51.9999286 C43.626,51.9999286 45,50.625904 45,48.999875 L45,48.999875 Z M28,47.9998571 C26.374,47.9998571 25,49.3738817 25,50.9999107 C25,52.6259397 26.374,53.9999643 28,53.9999643 C29.626,53.9999643 31,52.6259397 31,50.9999107 C31,49.3738817 29.626,47.9998571 28,47.9998571 L28,47.9998571 Z M14,45.9998214 C12.374,45.9998214 11,47.373846 11,48.999875 C11,50.625904 12.374,51.9999286 14,51.9999286 C15.626,51.9999286 17,50.625904 17,48.999875 C17,47.373846 15.626,45.9998214 14,45.9998214 L14,45.9998214 Z M16.605,30.9995536 L39.395,30.9995536 L31.739,24.1104305 L28.649,26.7584778 C28.463,26.9194807 28.23,26.9994821 27.999,26.9994821 C27.768,26.9994821 27.535,26.9194807 27.349,26.7584778 L24.26,24.1104305 L16.605,30.9995536 Z M15,16.1732888 L15,29.7545313 L22.729,22.7984071 L15,16.1732888 Z M39.297,14.9992678 L16.703,14.9992678 L27.999,24.6824408 L39.297,14.9992678 Z M41,29.7545313 L41,16.1732888 L33.271,22.7974071 L41,29.7545313 Z M47,48.999875 C47,51.7099234 44.71,53.9999643 42,53.9999643 C39.29,53.9999643 37,51.7099234 37,48.999875 C37,46.6308327 38.75,44.5837961 41,44.1057876 L41,40.9997321 L29,40.9997321 L29,46.1058233 C31.25,46.5838319 33,48.6308684 33,50.9999107 C33,53.7099591 30.71,56 28,56 C25.29,56 23,53.7099591 23,50.9999107 C23,48.6308684 24.75,46.5838319 27,46.1058233 L27,40.9997321 L15,40.9997321 L15,44.1057876 C17.25,44.5837961 19,46.6308327 19,48.999875 C19,51.7099234 16.71,53.9999643 14,53.9999643 C11.29,53.9999643 9,51.7099234 9,48.999875 C9,46.6308327 10.75,44.5837961 13,44.1057876 L13,39.9997143 C13,39.4477044 13.447,38.9996964 14,38.9996964 L27,38.9996964 L27,32.9995893 L14,32.9995893 C13.447,32.9995893 13,32.5515813 13,31.9995714 L13,13.99925 C13,13.4472401 13.447,12.9992321 14,12.9992321 L42,12.9992321 C42.553,12.9992321 43,13.4472401 43,13.99925 L43,31.9995714 C43,32.5515813 42.553,32.9995893 42,32.9995893 L29,32.9995893 L29,38.9996964 L42,38.9996964 C42.553,38.9996964 43,39.4477044 43,39.9997143 L43,44.1057876 C45.25,44.5837961 47,46.6308327 47,48.999875 L47,48.999875 Z M56,27.9995 C56,33.9066055 54.177,39.5597064 50.727,44.3447919 L49.104,43.174771 C52.307,38.7316916 54,33.4845979 54,27.9995 C54,13.664244 42.337,2.0000357 28.001,2.0000357 C13.664,2.0000357 2,13.664244 2,27.9995 C2,33.4845979 3.693,38.7316916 6.896,43.174771 L5.273,44.3447919 C1.823,39.5597064 0,33.9066055 0,27.9995 C0,12.5612243 12.561,0 27.999,0 C43.438,0 56,12.5612243 56,27.9995 L56,27.9995 Z" id="Amazon-Simple-Email-Service_Icon_64_Squid"></path>
        </g>
        <g id="amazon-cloudfront" fill-rule="nonzero">
            <rect id="Purple_Gradient" fill="#8C4FFF" x="0" y="0" width="94" height="94"></rect>
            <g id="Icon_Test" transform="translate(22, 22.0025)" fill="#FFFFFF">
                <path d="M33.64,48.167455 L31.86,47.247455 C32.8085466,45.4435257 33.5692085,43.5468974 34.13,41.587455 L36.05,42.147455 C35.4530374,44.2307058 34.645541,46.2477713 33.64,48.167455 Z M35.5,29.857455 C35.1540291,24.2580494 33.3361251,18.8491812 30.23,14.177455 L31.9,13.087455 C35.2010406,18.0471191 37.1329148,23.7909951 37.5,29.737455 L35.5,29.857455 Z M22.31,5.72745497 C20.8586523,4.64361348 19.3123696,3.69308477 17.69,2.88745497 L18.6,1.10745497 C20.3270424,1.95716863 21.9737425,2.96125403 23.52,4.10745497 L22.31,5.72745497 Z" id="Shape"></path>
                <path d="M30.5,32.397455 C27.3435799,29.2624609 23.52758,26.8710554 19.33,25.397455 L19.95,23.497455 C24.420557,25.0665505 28.4856024,27.6114739 31.85,30.947455 L30.5,32.397455 Z" id="Path"></path>
                <path d="M38.74,44.337455 C38.37,43.337455 37.95,42.417455 37.49,41.487455 L39.28,40.597455 C39.7732477,41.5745726 40.2171395,42.5758323 40.61,43.597455 L38.74,44.337455 Z" id="Path"></path>
                <path d="M33.07,48.647455 L32.43,46.757455 C34.8256168,45.9501025 37.0672836,44.7430511 39.06,43.187455 L40.29,44.767455 C38.1197565,46.4593018 35.6785404,47.7712019 33.07,48.647455 L33.07,48.647455 Z" id="Path"></path>
                <path d="M1.28,24.497455 L0.82,22.557455 C3.03738356,22.0143934 5.30759899,21.7159456 7.59,21.667455 L7.64,23.667455 C5.49607479,23.7113512 3.36338674,23.9896737 1.28,24.497455 L1.28,24.497455 Z" id="Path"></path>
                <path d="M17.68,18.137455 L16,17.047455 C17.4679034,14.6633628 19.2771074,12.5071421 21.37,10.647455 L22.69,12.157455 C20.7356008,13.8941404 19.0475046,15.9090736 17.68,18.137455 L17.68,18.137455 Z" id="Path"></path>
                <path d="M32.55,6.27745497 L31.87,4.39745497 C33.3751649,3.83317579 34.9235604,3.39173259 36.5,3.07745497 L36.87,5.07745497 C35.3991158,5.3565426 33.9540978,5.75793648 32.55,6.27745497 L32.55,6.27745497 Z" id="Path"></path>
                <path d="M12.75,46.497455 C11.1156476,42.7043879 10.2424439,38.6271724 10.18,34.497455 C10.2131016,32.9061572 10.4210168,31.3233191 10.8,29.777455 C10.87,29.427455 10.95,29.067455 11.02,28.697455 L13.02,29.087455 C12.95,29.467455 12.87,29.827455 12.8,30.187455 C12.4505809,31.598769 12.2560981,33.0439771 12.22,34.497455 C12.2653426,38.3772142 13.0740528,42.2100928 14.6,45.777455 L12.75,46.497455 Z" id="Path"></path>
                <path d="M25,49.997455 C11.1928813,49.997455 0,38.8045737 0,24.997455 C0,24.487455 0,23.997455 0.05,23.487455 C0.683098541,13.0065545 7.79789766,4.03815245 17.86,1.03745497 C24.3399371,-0.889815176 31.3241675,-0.110582851 37.22,3.19745497 C44.5362565,7.29972466 49.3077062,14.7976175 49.9253309,23.1627095 C50.5429555,31.5278016 46.9244352,39.6451559 40.29,44.777455 C35.9043639,48.1483926 30.531438,49.9827074 25,49.997455 L25,49.997455 Z M25,1.99745497 C22.7726426,2.00462961 20.5586265,2.34161836 18.43,2.99745497 C9.18277977,5.75687976 2.64145004,13.995441 2.05,23.627455 C2.05,24.097455 2,24.547455 2,24.997455 C2,37.7000042 12.2974508,47.9974823 25,47.9974823 C27.5252246,48.001378 30.0332664,47.5822444 32.42,46.757455 C34.8197452,45.9525579 37.0651,44.7453416 39.06,43.187455 C46.8368522,37.1696343 49.9277728,26.8735194 46.7511926,17.5674497 C43.5746123,8.26138003 34.8332878,2.0041426 25,1.99745497 Z" id="Shape"></path>
                <path d="M27.43,13.4274663 C25.6373232,13.4274663 24.0213554,12.3470304 23.3362657,10.6904248 C22.6511759,9.03381921 23.0320243,7.12761517 24.3010698,5.8614344 C25.5701152,4.59525364 27.477175,4.21871397 29.1322282,4.90754572 C30.7872813,5.59637747 31.8640467,7.21478276 31.8600114,9.00745497 C31.8600114,10.1814465 31.3929533,11.3072089 30.5618784,12.1364078 C29.7308036,12.9656066 28.6039885,13.4301111 27.43,13.4274663 L27.43,13.4274663 Z M27.43,6.57745497 C26.0879481,6.57745497 25,7.66540303 25,9.00745497 C25,10.3495069 26.0879481,11.437455 27.43,11.437455 C28.7720519,11.437455 29.86,10.3495069 29.86,9.00745497 C29.86,7.66540303 28.7720519,6.57745497 27.43,6.57745497 L27.43,6.57745497 Z" id="Shape"></path>
                <path d="M13.79,27.377455 C11.3433786,27.377455 9.36,25.3940764 9.36,22.947455 C9.36,20.5008335 11.3433786,18.517455 13.79,18.517455 C16.2366214,18.517455 18.22,20.5008335 18.22,22.947455 C18.2145009,25.391795 16.23434,27.3719559 13.79,27.377455 Z M13.79,20.517455 C12.4479481,20.517455 11.36,21.605403 11.36,22.947455 C11.36,24.2895069 12.4479481,25.377455 13.79,25.377455 C15.1320519,25.377455 16.22,24.2895069 16.22,22.947455 C16.225333,22.2995206 15.9716721,21.6762901 15.5153794,21.216242 C15.0590867,20.7561938 14.4379563,20.497455 13.79,20.497455 L13.79,20.517455 Z" id="Shape"></path>
                <path d="M35.78,40.1974663 C33.9864187,40.2014991 32.3673821,39.1236494 31.6791388,37.467367 C30.9908955,35.8110845 31.3692715,33.9032399 32.6375282,32.6349832 C33.905785,31.3667265 35.8136296,30.9883504 37.469912,31.6765938 C39.1261944,32.3648371 40.2040442,33.9838736 40.2000113,35.777455 C40.2000113,38.2185536 38.2210986,40.1974663 35.78,40.1974663 Z M35.78,33.3474342 C34.7962569,33.3434066 33.9071262,33.9328834 33.5278555,34.8405842 C33.1485849,35.748285 33.3540098,36.7951073 34.0481914,37.4921574 C34.742373,38.1892075 35.7883392,38.3989474 36.6975963,38.0234231 C37.6068533,37.6478987 38.2,36.7612064 38.2,35.777455 C38.2,34.4392986 37.118145,33.3529618 35.78,33.3474342 L35.78,33.3474342 Z" id="Shape"></path>
            </g>
        </g>
    </g>
</svg>