<?xml version="1.0" encoding="UTF-8"?>
<svg width="94px" height="94px" viewBox="0 0 94 94" version="1.1" xmlns="http://www.w3.org/2000/svg" xmlns:xlink="http://www.w3.org/1999/xlink">
    <title>external</title>
    <g id="external" stroke="none" stroke-width="1" fill="none" fill-rule="evenodd">
        <g fill="#7AA116" fill-rule="nonzero" id="Icon-Architecture-BG/64/AWS-Cost-Management">
            <g>
                <rect id="Rectangle" x="0" y="0" width="94" height="94"></rect>
            </g>
        </g>
        <g id="globe-americas" transform="translate(29.36, 29.36)" stroke="#FFFFFF" stroke-linecap="round" stroke-linejoin="round" stroke-width="1.75">
            <path d="M6.1055372,4.2932428 L6.730444,8.0426052 C7.1333808,10.4603044 8.281686,12.691686 10.0148552,14.424816 L13.23,17.64 L12.4707352,19.158412 C12.0462972,20.007484 12.2126816,21.03276 12.8837856,21.703864 L15.52418,24.34418 C15.93774,24.75774 16.17,25.318496 16.17,25.90336 L16.17,28.037212 C16.17,28.872368 16.641968,29.635984 17.388924,30.009364 L17.688412,30.159304 C18.537484,30.583644 19.56276,30.41724 20.233864,29.746136 L21.650356,28.329644 C23.83556,26.14444 25.38592,23.406124 26.135424,20.407912 C26.333972,19.614308 26.060552,18.777192 25.432176,18.25348 L22.826748,16.082388 C22.333612,15.671376 21.685832,15.49576 21.052556,15.601208 L18.759356,15.983408 C18.056892,16.100616 17.3411,15.8711 16.837576,15.367576 L16.25918,14.78918 C15.398152,13.928152 15.398152,12.5319264 16.25918,11.67082 L16.516136,11.4137856 C17.18724,10.742662 18.212516,10.5762972 19.061588,11.0007548 L20.245232,11.5925964 C20.46534,11.7026896 20.708184,11.76 20.95436,11.76 C22.133104,11.76 22.89966,10.519516 22.372616,9.4651928 L22.05,8.82 L24.511172,7.1792644 C25.788308,6.3278404 26.821032,5.1578772 27.507424,3.7849952 L27.793388,3.2132632 M6.1055372,4.2932428 C2.3660336,7.5278308 0,12.3076044 0,17.64 C0,27.382376 7.8977024,35.28 17.64,35.28 C27.382376,35.28 35.28,27.382376 35.28,17.64 C35.28,11.6776996 32.321968,6.4062796 27.793388,3.2132632 M6.1055372,4.2932428 C9.1981232,1.6182152 13.2300784,0 17.64,0 C21.420056,0 24.92238,1.188936 27.793388,3.2132632" id="Shape"></path>
        </g>
    </g>
</svg>