<?xml version="1.0" encoding="UTF-8"?>
<svg width="94px" height="94px" viewBox="0 0 94 94" version="1.1" xmlns="http://www.w3.org/2000/svg" xmlns:xlink="http://www.w3.org/1999/xlink">
    <title>s3</title>
    <g id="s3" stroke="none" stroke-width="1" fill="none" fill-rule="evenodd">
        <g id="Arch_Amazon-Simple-Email-Service_64" transform="translate(19, 19)" fill="#FFFFFF" fill-rule="nonzero">
            <path d="M45,48.999875 C45,47.373846 43.626,45.9998214 42,45.9998214 C40.374,45.9998214 39,47.373846 39,48.999875 C39,50.625904 40.374,51.9999286 42,51.9999286 C43.626,51.9999286 45,50.625904 45,48.999875 L45,48.999875 Z M28,47.9998571 C26.374,47.9998571 25,49.3738817 25,50.9999107 C25,52.6259397 26.374,53.9999643 28,53.9999643 C29.626,53.9999643 31,52.6259397 31,50.9999107 C31,49.3738817 29.626,47.9998571 28,47.9998571 L28,47.9998571 Z M14,45.9998214 C12.374,45.9998214 11,47.373846 11,48.999875 C11,50.625904 12.374,51.9999286 14,51.9999286 C15.626,51.9999286 17,50.625904 17,48.999875 C17,47.373846 15.626,45.9998214 14,45.9998214 L14,45.9998214 Z M16.605,30.9995536 L39.395,30.9995536 L31.739,24.1104305 L28.649,26.7584778 C28.463,26.9194807 28.23,26.9994821 27.999,26.9994821 C27.768,26.9994821 27.535,26.9194807 27.349,26.7584778 L24.26,24.1104305 L16.605,30.9995536 Z M15,16.1732888 L15,29.7545313 L22.729,22.7984071 L15,16.1732888 Z M39.297,14.9992678 L16.703,14.9992678 L27.999,24.6824408 L39.297,14.9992678 Z M41,29.7545313 L41,16.1732888 L33.271,22.7974071 L41,29.7545313 Z M47,48.999875 C47,51.7099234 44.71,53.9999643 42,53.9999643 C39.29,53.9999643 37,51.7099234 37,48.999875 C37,46.6308327 38.75,44.5837961 41,44.1057876 L41,40.9997321 L29,40.9997321 L29,46.1058233 C31.25,46.5838319 33,48.6308684 33,50.9999107 C33,53.7099591 30.71,56 28,56 C25.29,56 23,53.7099591 23,50.9999107 C23,48.6308684 24.75,46.5838319 27,46.1058233 L27,40.9997321 L15,40.9997321 L15,44.1057876 C17.25,44.5837961 19,46.6308327 19,48.999875 C19,51.7099234 16.71,53.9999643 14,53.9999643 C11.29,53.9999643 9,51.7099234 9,48.999875 C9,46.6308327 10.75,44.5837961 13,44.1057876 L13,39.9997143 C13,39.4477044 13.447,38.9996964 14,38.9996964 L27,38.9996964 L27,32.9995893 L14,32.9995893 C13.447,32.9995893 13,32.5515813 13,31.9995714 L13,13.99925 C13,13.4472401 13.447,12.9992321 14,12.9992321 L42,12.9992321 C42.553,12.9992321 43,13.4472401 43,13.99925 L43,31.9995714 C43,32.5515813 42.553,32.9995893 42,32.9995893 L29,32.9995893 L29,38.9996964 L42,38.9996964 C42.553,38.9996964 43,39.4477044 43,39.9997143 L43,44.1057876 C45.25,44.5837961 47,46.6308327 47,48.999875 L47,48.999875 Z M56,27.9995 C56,33.9066055 54.177,39.5597064 50.727,44.3447919 L49.104,43.174771 C52.307,38.7316916 54,33.4845979 54,27.9995 C54,13.664244 42.337,2.0000357 28.001,2.0000357 C13.664,2.0000357 2,13.664244 2,27.9995 C2,33.4845979 3.693,38.7316916 6.896,43.174771 L5.273,44.3447919 C1.823,39.5597064 0,33.9066055 0,27.9995 C0,12.5612243 12.561,0 27.999,0 C43.438,0 56,12.5612243 56,27.9995 L56,27.9995 Z" id="Amazon-Simple-Email-Service_Icon_64_Squid"></path>
        </g>
        <g id="amazon-simple-storage-service-s3" fill-rule="nonzero">
            <rect id="Green_Gradient" fill="#538634" x="0" y="0" width="94" height="94"></rect>
            <g id="Icon_Test" transform="translate(23.0601, 22.0202)" fill="#FFFFFF">
                <path d="M47.8698553,27.5398034 C47.5798553,25.9698034 45.7998553,24.8598034 44.5798553,24.0698034 C44.1898553,23.8198034 43.1198553,23.4198034 43.0298553,23.0698034 C43.0237063,22.8193928 43.0574621,22.5696001 43.1298553,22.3298034 L44.1298553,15.1398034 C44.4198553,13.0298034 44.6998553,10.9198034 44.9898553,8.80980336 C45.2498553,6.86980336 44.3198553,5.56980336 42.7398553,4.47980336 C39.5198553,2.24980336 35.3198553,1.34980336 31.5298553,0.72980336 C26.7768344,-0.0462025722 21.9434044,-0.204179769 17.1498553,0.25980336 C12.8385191,0.576155022 8.60697193,1.58929481 4.61985528,3.25980336 C2.47985528,4.25980336 -0.320144715,5.81980336 0.029855285,8.54980336 C1.02985528,16.6698034 2.20985528,24.7698034 3.29985528,32.8798034 C3.79985528,36.5898034 4.29985528,40.2998034 4.79985528,44.0098034 C4.96411906,45.4803369 5.90253268,46.7506285 7.25985528,47.3398034 C10.3598553,49.0198034 14.1998553,49.4998034 17.6598553,49.8198034 C22.2597609,50.2353002 26.8946559,50.0301271 31.4398553,49.2098034 C34.3198553,48.6798034 39.6798553,47.8098034 40.1398553,44.2098034 C40.7098553,39.7498034 41.3398553,35.2898034 41.9398553,30.8398034 L42.1598553,29.4798034 C43.7898553,29.8698034 48.4398553,30.6998034 47.8698553,27.5398034 Z M22.4898553,1.97980336 C28.4898553,1.97980336 35.3598553,2.65980336 40.7398553,5.61980336 C41.5698553,6.07980336 43.4998553,7.10980336 42.9198553,8.32980336 C42.3398553,9.54980336 40.5398553,10.1598034 39.4398553,10.5998034 C37.8691201,11.1800127 36.2537944,11.6315012 34.6098553,11.9498034 C27.4715686,13.3638611 20.140713,13.5161642 12.9498553,12.3998034 C9.70285705,12.0649808 6.544342,11.1397934 3.62985528,9.66980336 C2.90985528,9.25980336 1.71985528,8.51980336 2.04985528,7.53980336 C2.31124479,7.01326392 2.72156856,6.57512159 3.22985528,6.27980336 C5.42632953,4.86725277 7.86872699,3.88011713 10.4298553,3.36980336 C14.3790808,2.42176294 18.4285071,1.95503802 22.4898553,1.97980336 Z M38.1698553,44.1298034 C38.0198553,45.2998034 36.0898553,45.8798034 35.1698553,46.2098034 C33.2598664,46.8486979 31.2896582,47.2909895 29.2898553,47.5298034 C24.8527136,48.1197746 20.3569969,48.1197746 15.9198553,47.5298034 C13.1407637,47.3142001 10.4269707,46.5780837 7.91985528,45.3598034 C7.22412702,45.0573891 6.75938415,44.3873848 6.71985528,43.6298034 C5.71985528,35.6998034 4.57985528,27.7698034 3.50985528,19.8398034 L2.34985528,11.2398034 C4.62323326,12.494633 7.09068415,13.3599308 9.64985528,13.7998034 C12.3908558,14.3576266 15.1677153,14.7218597 17.9598553,14.8898034 C23.4396748,15.2824847 28.9471873,14.9766984 34.3498553,13.9798034 C37.2285882,13.5657634 40.0094658,12.6376752 42.5598553,11.2398034 L40.4398553,26.9398034 C35.3724008,25.2702952 30.4214929,23.2658791 25.6198553,20.9398034 C25.4091836,20.8593951 25.2052123,20.7624252 25.0098553,20.6498034 C24.7398553,20.4498034 24.8098553,20.5498034 24.6798553,20.2398034 C24.4298553,19.6698034 24.3698553,19.2398034 23.8398553,18.7698034 C23.0528311,18.1394651 21.9425489,18.1097007 21.1228832,18.6969669 C20.3032175,19.284233 19.9743462,20.3451082 20.3181021,21.293035 C20.6618579,22.2409618 21.5942893,22.8444386 22.5998553,22.7698034 C22.9445615,22.7126131 23.2805921,22.6118039 23.5998553,22.4698034 C23.9898553,22.3498034 23.9898553,22.3698034 24.3998553,22.5598034 C29.2632166,24.931269 34.2734718,26.9888138 39.3998553,28.7198034 C40.1698553,28.9698034 40.1598553,28.7198034 40.1598553,29.3598034 C40.1273756,29.8466808 40.0639138,30.3309948 39.9698553,30.8098034 L39.3298553,35.5798034 L38.1698553,44.1298034 Z M22.7398553,20.4798034 C22.7398553,20.7498034 22.3598553,20.7198034 22.2598553,20.5498034 C22.1598553,20.3798034 22.7398553,20.0998034 22.7398553,20.4798034 Z M42.4398553,27.4798034 L42.7398553,25.2698034 C43.7398553,25.8398034 45.4398553,26.6998034 45.8898553,27.8398034 C44.9098553,28.2398034 43.3598553,27.7098034 42.4398553,27.4798034 Z" id="Shape"></path>
            </g>
        </g>
    </g>
</svg>