<?xml version="1.0" encoding="UTF-8"?>
<svg width="94px" height="94px" viewBox="0 0 94 94" version="1.1" xmlns="http://www.w3.org/2000/svg" xmlns:xlink="http://www.w3.org/1999/xlink">
    <title>ses</title>
    <g id="ses" stroke="none" stroke-width="1" fill="none" fill-rule="evenodd">
        <g id="Arch_Amazon-Simple-Email-Service_64" fill-rule="nonzero">
            <g id="Icon-Architecture-BG/64/Business-Applications" fill="#DD344C">
                <rect id="Rectangle" x="0" y="0" width="94" height="94"></rect>
            </g>
            <path d="M64,67.999875 C64,66.373846 62.626,64.9998214 61,64.9998214 C59.374,64.9998214 58,66.373846 58,67.999875 C58,69.625904 59.374,70.9999286 61,70.9999286 C62.626,70.9999286 64,69.625904 64,67.999875 L64,67.999875 Z M47,66.9998571 C45.374,66.9998571 44,68.3738817 44,69.9999107 C44,71.6259397 45.374,72.9999643 47,72.9999643 C48.626,72.9999643 50,71.6259397 50,69.9999107 C50,68.3738817 48.626,66.9998571 47,66.9998571 L47,66.9998571 Z M33,64.9998214 C31.374,64.9998214 30,66.373846 30,67.999875 C30,69.625904 31.374,70.9999286 33,70.9999286 C34.626,70.9999286 36,69.625904 36,67.999875 C36,66.373846 34.626,64.9998214 33,64.9998214 L33,64.9998214 Z M35.605,49.9995536 L58.395,49.9995536 L50.739,43.1104305 L47.649,45.7584778 C47.463,45.9194807 47.23,45.9994821 46.999,45.9994821 C46.768,45.9994821 46.535,45.9194807 46.349,45.7584778 L43.26,43.1104305 L35.605,49.9995536 Z M34,35.1732888 L34,48.7545313 L41.729,41.7984071 L34,35.1732888 Z M58.297,33.9992678 L35.703,33.9992678 L46.999,43.6824408 L58.297,33.9992678 Z M60,48.7545313 L60,35.1732888 L52.271,41.7974071 L60,48.7545313 Z M66,67.999875 C66,70.7099234 63.71,72.9999643 61,72.9999643 C58.29,72.9999643 56,70.7099234 56,67.999875 C56,65.6308327 57.75,63.5837961 60,63.1057876 L60,59.9997321 L48,59.9997321 L48,65.1058233 C50.25,65.5838319 52,67.6308684 52,69.9999107 C52,72.7099591 49.71,75 47,75 C44.29,75 42,72.7099591 42,69.9999107 C42,67.6308684 43.75,65.5838319 46,65.1058233 L46,59.9997321 L34,59.9997321 L34,63.1057876 C36.25,63.5837961 38,65.6308327 38,67.999875 C38,70.7099234 35.71,72.9999643 33,72.9999643 C30.29,72.9999643 28,70.7099234 28,67.999875 C28,65.6308327 29.75,63.5837961 32,63.1057876 L32,58.9997143 C32,58.4477044 32.447,57.9996964 33,57.9996964 L46,57.9996964 L46,51.9995893 L33,51.9995893 C32.447,51.9995893 32,51.5515813 32,50.9995714 L32,32.99925 C32,32.4472401 32.447,31.9992321 33,31.9992321 L61,31.9992321 C61.553,31.9992321 62,32.4472401 62,32.99925 L62,50.9995714 C62,51.5515813 61.553,51.9995893 61,51.9995893 L48,51.9995893 L48,57.9996964 L61,57.9996964 C61.553,57.9996964 62,58.4477044 62,58.9997143 L62,63.1057876 C64.25,63.5837961 66,65.6308327 66,67.999875 L66,67.999875 Z M75,46.9995 C75,52.9066055 73.177,58.5597064 69.727,63.3447919 L68.104,62.174771 C71.307,57.7316916 73,52.4845979 73,46.9995 C73,32.664244 61.337,21.0000357 47.001,21.0000357 C32.664,21.0000357 21,32.664244 21,46.9995 C21,52.4845979 22.693,57.7316916 25.896,62.174771 L24.273,63.3447919 C20.823,58.5597064 19,52.9066055 19,46.9995 C19,31.5612243 31.561,19 46.999,19 C62.438,19 75,31.5612243 75,46.9995 L75,46.9995 Z" id="Amazon-Simple-Email-Service_Icon_64_Squid" fill="#FFFFFF"></path>
        </g>
    </g>
</svg>