<?xml version="1.0" encoding="UTF-8"?>
<svg width="94px" height="94px" viewBox="0 0 94 94" version="1.1" xmlns="http://www.w3.org/2000/svg" xmlns:xlink="http://www.w3.org/1999/xlink">
    <title>shopify</title>
    <g id="shopify" stroke="none" stroke-width="1" fill="none" fill-rule="evenodd">
        <rect fill="#122A23" x="0" y="0" width="94" height="94"></rect>
        <g id="Group" transform="translate(26.112, 23.3253)" fill-rule="nonzero">
            <path d="M36.596,9.12939896 C36.568,8.87739896 36.344,8.76539896 36.176,8.73739896 C36.008,8.70939896 32.648,8.68139896 32.648,8.68139896 C32.648,8.68139896 29.82,5.93739896 29.54,5.65739896 C29.26,5.37739896 28.728,5.46139896 28.504,5.51739896 C28.504,5.51739896 27.972,5.68539896 27.076,5.96539896 C26.936,5.48939896 26.712,4.90139896 26.404,4.31339896 C25.396,2.38139896 23.94,1.37339896 22.148,1.37339896 C22.036,1.37339896 21.896,1.37339896 21.784,1.40139896 C21.728,1.34539896 21.672,1.28939896 21.616,1.20539896 C20.832,0.365398965 19.852,-0.0266010353 18.676,0.00139896469 C16.38,0.0573989647 14.112,1.70939896 12.236,4.67739896 C10.92,6.74939896 9.94,9.35339896 9.66,11.369399 C7.028,12.181399 5.18,12.741399 5.152,12.769399 C3.836,13.189399 3.78,13.217399 3.612,14.477399 C3.472,15.401399 0,42.309399 0,42.309399 L29.148,47.349399 L41.776,44.213399 C41.776,44.213399 36.624,9.35339896 36.596,9.12939896 Z M25.62,6.41339896 C24.948,6.60939896 24.192,6.86139896 23.352,7.11339896 C23.324,5.96539896 23.184,4.34139896 22.652,2.94139896 C24.416,3.27739896 25.256,5.23739896 25.62,6.41339896 Z M21.84,7.58939896 C20.3,8.06539896 18.648,8.56939896 16.968,9.10139896 C17.444,7.30939896 18.34,5.51739896 19.432,4.34139896 C19.852,3.89339896 20.412,3.41739896 21.084,3.13739896 C21.728,4.45339896 21.84,6.32939896 21.84,7.58939896 L21.84,7.58939896 Z M18.704,1.54139896 C19.236,1.54139896 19.684,1.65339896 20.076,1.90539896 C19.46,2.21339896 18.844,2.68939896 18.284,3.30539896 C16.828,4.87339896 15.708,7.28139896 15.26,9.63339896 C13.86,10.053399 12.516,10.473399 11.256,10.865399 C12.096,7.16939896 15.176,1.65339896 18.704,1.54139896 L18.704,1.54139896 Z" id="Shape" fill="#95BF47"></path>
            <path d="M36.176,8.73739896 C36.008,8.70939896 32.648,8.68139896 32.648,8.68139896 C32.648,8.68139896 29.82,5.93739896 29.54,5.65739896 C29.428,5.54539896 29.288,5.48939896 29.148,5.48939896 L29.148,47.349399 L41.776,44.213399 C41.776,44.213399 36.624,9.38139896 36.596,9.12939896 C36.54,8.87739896 36.344,8.76539896 36.176,8.73739896 Z" id="Path" fill="#5E8E3E"></path>
            <path d="M22.148,15.233399 L20.692,20.721399 C20.692,20.721399 19.068,19.965399 17.108,20.105399 C14.252,20.273399 14.224,22.065399 14.252,22.541399 C14.42,25.005399 20.86,25.537399 21.224,31.277399 C21.504,35.813399 18.816,38.893399 14.952,39.145399 C10.304,39.425399 7.756,36.709399 7.756,36.709399 L8.736,32.537399 C8.736,32.537399 11.312,34.469399 13.356,34.357399 C14.7,34.273399 15.176,33.181399 15.12,32.397399 C14.924,29.205399 9.66,29.373399 9.324,24.137399 C9.044,19.713399 11.956,15.233399 18.368,14.813399 C20.888,14.589399 22.148,15.233399 22.148,15.233399 L22.148,15.233399 Z" id="Path" fill="#FFFFFF"></path>
        </g>
    </g>
</svg>