<?xml version="1.0" encoding="UTF-8"?>
<svg width="94px" height="94px" viewBox="0 0 94 94" version="1.1" xmlns="http://www.w3.org/2000/svg" xmlns:xlink="http://www.w3.org/1999/xlink">
    <title>slack</title>
    <g id="slack" stroke="none" stroke-width="1" fill="none" fill-rule="evenodd">
        <rect fill="#441949" x="0" y="0" width="94" height="94"></rect>
        <g transform="translate(26.6211, 26.6211)" fill-rule="nonzero">
            <g id="Group" transform="translate(0, 21.4805)" fill="#E01E5A">
                <path d="M8.5921875,4.29609375 C8.5921875,6.66876079 6.66876079,8.59218744 4.29609375,8.59218744 C1.92342671,8.59218744 0,6.66876079 0,4.29609375 C0,1.87265625 1.87265625,0 4.29609375,0 L8.5921875,0 L8.5921875,4.29609375 Z M10.6851562,4.29609375 C10.6851562,1.92342669 12.6085829,0 14.98125,0 C17.3539171,0 19.2773438,1.92342669 19.2773438,4.29609375 L19.2773438,14.98125 C19.2773438,17.3539171 17.3539171,19.2773438 14.98125,19.2773438 C12.6085829,19.2773438 10.6851562,17.3539171 10.6851562,14.98125 L10.6851562,4.29609375 Z" id="a"></path>
            </g>
            <g id="a-link" transform="translate(9.6387, 9.6387) rotate(90) translate(-9.6387, -9.6387)" fill="#36C5F0">
                <path d="M8.5921875,4.29609375 C8.5921875,6.66876079 6.66876079,8.59218744 4.29609375,8.59218744 C1.92342671,8.59218744 0,6.66876079 0,4.29609375 C0,1.87265625 1.87265625,0 4.29609375,0 L8.5921875,0 L8.5921875,4.29609375 Z M10.6851562,4.29609375 C10.6851562,1.92342669 12.6085829,0 14.98125,0 C17.3539171,0 19.2773438,1.92342669 19.2773438,4.29609375 L19.2773438,14.98125 C19.2773438,17.3539171 17.3539171,19.2773438 14.98125,19.2773438 C12.6085829,19.2773438 10.6851562,17.3539171 10.6851562,14.98125 L10.6851562,4.29609375 Z" id="a"></path>
            </g>
            <g id="a-link" transform="translate(31.1191, 9.6387) rotate(180) translate(-31.1191, -9.6387)translate(21.4805, 0)" fill="#2EB67D">
                <path d="M8.5921875,4.29609375 C8.5921875,6.66876079 6.66876079,8.59218744 4.29609375,8.59218744 C1.92342671,8.59218744 0,6.66876079 0,4.29609375 C0,1.87265625 1.87265625,0 4.29609375,0 L8.5921875,0 L8.5921875,4.29609375 Z M10.6851562,4.29609375 C10.6851562,1.92342669 12.6085829,0 14.98125,0 C17.3539171,0 19.2773438,1.92342669 19.2773438,4.29609375 L19.2773438,14.98125 C19.2773438,17.3539171 17.3539171,19.2773438 14.98125,19.2773438 C12.6085829,19.2773438 10.6851562,17.3539171 10.6851562,14.98125 L10.6851562,4.29609375 Z" id="a"></path>
            </g>
            <g id="a-link" transform="translate(31.1191, 31.1191) rotate(-90) translate(-31.1191, -31.1191)translate(21.4805, 21.4805)" fill="#ECB22E">
                <path d="M8.5921875,4.29609375 C8.5921875,6.66876079 6.66876079,8.59218744 4.29609375,8.59218744 C1.92342671,8.59218744 0,6.66876079 0,4.29609375 C0,1.87265625 1.87265625,0 4.29609375,0 L8.5921875,0 L8.5921875,4.29609375 Z M10.6851562,4.29609375 C10.6851562,1.92342669 12.6085829,0 14.98125,0 C17.3539171,0 19.2773438,1.92342669 19.2773438,4.29609375 L19.2773438,14.98125 C19.2773438,17.3539171 17.3539171,19.2773438 14.98125,19.2773438 C12.6085829,19.2773438 10.6851562,17.3539171 10.6851562,14.98125 L10.6851562,4.29609375 Z" id="a"></path>
            </g>
        </g>
    </g>
</svg>