<?xml version="1.0" encoding="UTF-8"?>
<svg width="94px" height="94px" viewBox="0 0 94 94" version="1.1" xmlns="http://www.w3.org/2000/svg" xmlns:xlink="http://www.w3.org/1999/xlink">
    <title>shopify copy</title>
    <g id="shopify-copy" stroke="none" stroke-width="1" fill="none" fill-rule="evenodd">
        <rect fill="#FAE8DA" x="0" y="0" width="94" height="94"></rect>
        <g id="Group" transform="translate(23.5316, 23.48)" fill="#DE483A" fill-rule="nonzero">
            <path d="M39.5162107,8.8817842e-16 C43.6729266,0 47.0426107,3.36968406 47.0426107,7.5264 L47.0426107,39.5136 C47.0426107,43.6703159 43.6729266,47.04 39.5162107,47.04 L7.52901066,47.04 C3.37229472,47.04 0.00261066107,43.6703159 0.00261066107,39.5136 L0.000446526612,33.321168 C2.01909341,34.4968584 6.7334309,37.2418248 7.89063066,37.89513 C8.59329066,38.29203 9.26802066,38.28321 9.94569066,37.89219 L19.3169407,32.49876 L28.9821907,26.93628 C29.3893807,26.70108 29.4099607,25.97931 28.9542607,25.71765 C28.4038463,25.4068837 27.855039,25.0932795 27.3078607,24.77685 C26.8495482,24.5272855 26.2944436,24.5339668 25.8422707,24.79449 C25.7266453,24.8616273 21.7531963,27.1467009 17.8006355,29.4190336 L17.1041311,29.8194473 C13.5148032,31.8828758 10.1325123,33.8266307 9.89718066,33.95994 C9.28860066,34.30686 8.53596066,34.31127 7.92885066,33.95994 L0.00175896879,29.354 L0.00175896879,25.395 L0.181605452,25.5004354 C2.2879574,26.7271499 6.76679195,29.334419 7.89063066,29.96889 C8.59476066,30.36579 9.26802066,30.35697 9.94569066,29.96595 L19.3037107,24.57987 L19.3389907,24.55929 L28.9821907,19.01004 C29.3893807,18.77484 29.4084907,18.05307 28.9527907,17.79288 L28.6338007,17.6106 C28.1692807,17.346 27.5651107,17.00202 27.3078607,16.85208 C26.8495482,16.6025155 26.2944436,16.6091968 25.8422707,16.86972 C25.6144207,17.00055 10.4058007,25.74558 9.89718066,26.0337 C9.2873757,26.3823041 8.53865563,26.3823041 7.92885066,26.0337 C7.48272258,25.7764237 0.906146597,21.9545187 -6.80282653e-15,21.4279121 L0.00175896879,17.469 L0.181472224,17.5741998 C2.28658071,18.8010017 6.76679195,21.4096016 7.89063066,22.04265 C8.59476066,22.43955 9.26802066,22.43073 9.94569066,22.03971 L19.3154707,16.64775 L19.3272307,16.6404 L28.9821907,11.0838 C29.3893807,10.8486 29.4084907,10.1283 28.9527907,9.86664 L28.6338007,9.68436 C28.1678107,9.41976 27.5651107,9.07578 27.3078607,8.92584 C26.8495482,8.67627546 26.2944436,8.68295676 25.8422707,8.94348 C25.7266453,9.01061731 21.7531963,11.2953123 17.8006355,13.5674643 L17.1041311,13.9678482 C13.5148032,16.0311349 10.1325123,17.9749406 9.89718066,18.10893 C9.2873757,18.4575341 8.53865563,18.4575341 7.92885066,18.10893 L0.00175896879,13.501 L0.00261066107,7.5264 C0.00261066107,3.36968406 3.37229472,4.4408921e-15 7.52901066,3.55271368e-15 L39.5162107,8.8817842e-16 Z" id="Rectangle-2"></path>
        </g>
    </g>
</svg>